# xmcd
#
# Track frame offsets:
#	150
#	18535
#	33448
#	49001
#	65743
#	82203
#	88106
#	100941
#	115789
#	134910
#	148882
#	160840
#
# Disc length: 2423 seconds
#
# Revision: 1
# Processed by: cddbd v1.5.2PL0 Copyright (c) Steve Scherf et al.
# Submitted via: EZCDAudioConverter 6.0.9.1
#
DISCID=b109750c
DTITLE=Long John Baldry - Good To Be Alive
DYEAR=1973
DGENRE=Blues
TTITLE0=Good To Be Alive
TTITLE1=Let Me Pass
TTITLE2=Rake And Ram-Bling Boy
TTITLE3=High And Low
TTITLE4=Gasoline Alley
TTITLE5=I Wish I Was A Rock
TTITLE6=Up In The Trees
TTITLE7=Brand New Day
TTITLE8=Song For Martin Luther King
TTITLE9=Maggie Bell
TTITLE10=Let's Go
TTITLE11=She
EXTD=
EXTT0=
EXTT1=
EXTT2=
EXTT3=
EXTT4=
EXTT5=
EXTT6=
EXTT7=
EXTT8=
EXTT9=
EXTT10=
EXTT11=
PLAYORDER=
